# xmcd
#
# Track frame offsets:
#	150
#	11073
#	24471
#	51819
#	65517
#	91965
#	114513
#	126186
#	150084
#	165207
#
# Disc length: 2365 seconds
#
# Revision: 3
# Processed by: cddbd v1.5.2PL0 Copyright (c) Steve Scherf et al.
# Submitted via: audiograbber 1.83.01
#
DISCID=6d093b0a
DTITLE=Gypsy la Blue - Hearts On fire
DYEAR=2008
DGENRE=Rock/Blues
TTITLE0=Ridin' With The Sheriff
TTITLE1=Leave Me
TTITLE2=Go Away From The Devil
TTITLE3=What About Archie
TTITLE4=For Breezy
TTITLE5=Sparks
TTITLE6=You Should've Come On Home
TTITLE7=Wanting You
TTITLE8=At Home
TTITLE9=Come Back To Me
EXTD=Jessia McDonald - Volcals\nKenny Jones - Lead Guitar\nDanny Holt - Bass\nJ
EXTD=oe Cook - Rhythm Guitar\nMike Holt - Drums\nAll Songs Writen By Jessica Mc
EXTD=Donald and Kenny Jones\nmore Info visit. www.myspace.com/gypsylaBlue
EXTT0=Jessica McDonald and Kenny Jones
EXTT1=Jessica McDonald
EXTT2=Jessica McDonald
EXTT3=Jessia McDonald and Kenny Jones
EXTT4=Jessica McDonald and Kenny Jones
EXTT5=Jessica McDonald
EXTT6=Jessica McDonald and Kenny Jones
EXTT7=Jessica McDonald
EXTT8=Jessica McDonald
EXTT9=Jessica McDonald
PLAYORDER=
